# xmcd
#
# Track frame offsets: 
#        150
#        9718
#        27861
#        39628
#        50472
#        61288
#        75020
#        91291
#        99244
#        108202
#        119716
#        135590
#        150559
#        165882
#        180398
#        191678
#        204690
#        222707
#        233049
#        247760
#        259190
#        269173
#        281280
#        292459
#        304307
#        320478
#
# Disc length: 4411 seconds
#
# Revision: 0
# Processed by: cddbd v1.5.2PL0 Copyright (c) Steve Scherf et al.
# Submitted via: ExactAudioCopy v1.1
#
DISCID=6f11391a
DTITLE=Various Artist - Louisiana Hayride_CD14
DYEAR=2017
DGENRE=Country
TTITLE0=Dobber Johnson - Liberty (& Intro theme)
TTITLE1=Johnny Horton - Same Old Tale The Crow Told Me (& Talk)
TTITLE2=Jay Chevalier - Flip Flop And Fly
TTITLE3=Jimmy Lee - May You Never Be Alone
TTITLE4=Jimmy Lee - Cocaine Blues
TTITLE5=Johnny Horton - Hole In My Pirogue
TTITLE6=Johnny Horton - Whispering Pines
TTITLE7=Marion Worth - My Home In San Antone
TTITLE8=Frankie Miller - Mary Don't You Weep
TTITLE9=Lump Lump Boys - Devil's Dream (& Intro theme)
TTITLE10=Elsie Holly - Have I Waited Too Long
TTITLE11=Elsie Holly - I'll Be All Smiles Tonight
TTITLE12=Frankie Miller - Money Side Of Life
TTITLE13=Carla Cates - Two Little Hearts (& Talk)
TTITLE14=Frankie Miller - Reunion (With Dinner On The Ground)
TTITLE15=Connie Hall - The Bottle Or Me
TTITLE16=Dean Evans - Standing At The End Of My World
TTITLE17=Jerry Jericho - Somebody's Always Pushing Me
TTITLE18=Tony Douglas, Frankie Miller and Dee Mullin - I Saw The Light
TTITLE19=Connie Hall - I'm The Girl In The USA
TTITLE20=Dobber Johnson - Tennessee Wagoner (& Intro theme)
TTITLE21=James O'Gwynn - Someone Sweet To Love
TTITLE22=James O'Gwynn - If I Don't Love You Grits Ain't Groceries
TTITLE23=Roger Miller - That's The Way I Feel
TTITLE24=Lawton Williams - Geisha Girl
TTITLE25=Lawton Williams - I Don't Care Who Knows
EXTD=
EXTT0=
EXTT1=
EXTT2=
EXTT3=
EXTT4=
EXTT5=
EXTT6=
EXTT7=
EXTT8=
EXTT9=
EXTT10=
EXTT11=
EXTT12=
EXTT13=
EXTT14=
EXTT15=
EXTT16=
EXTT17=
EXTT18=
EXTT19=
EXTT20=
EXTT21=
EXTT22=
EXTT23=
EXTT24=
EXTT25=
PLAYORDER=
